<svg version="1.2" xmlns="http://www.w3.org/2000/svg" viewBox="0 0 1500 500" width="1500" height="500">
	<title>BG</title>
	<style>
		.s0 { fill: #021d00 } 
	</style>
	<path id="Layer 2" class="s0" d="m0 326l17 7 11 16 6 15 26 6 19 19 3 19 20 26 17 34 18 7 29-3 22-19 21-44 19-21 7-19 11-23 25-13 42-5 10 22 14 18 30 27 9 28 31 24 45-17 15-44 15-37 17-15 23-11 12 7 25 8 27-9 11 14 2 24 12 13 17 7 43 16 16-13 15-15 10-24 20-9 13 9 19 9 31-3 29 8 16 19 3 23 9 16 11 9 18 11 33 20 24-5 30-20 31-3 13 14 18 16 26-15 19-15 22-26 8-33 19-16h25l41 17 17 18 44-7 30-14 24-2 26 27 17 14 22 25 33-6 25-5 25-21 14-28 7-23 10-19 16-11v175h-1500z"/>
</svg>