<svg version="1.2" xmlns="http://www.w3.org/2000/svg" viewBox="0 0 1500 500" width="1500" height="500">
	<title>BG</title>
	<style>
		.s0 { fill: #96cf6d } 
	</style>
	<path id="Layer 4" class="s0" d="m0 507l156-180 25-48-8-51 4-51 16-47-3-58 16-53 6-19h194l10 33v27l1 35 14-7 9 24v19l3 22v45l22 44 8 36 10 45 78 42 221-42 1-44 14-21v-27l23-15 24-1 20 10 4 25v20l7 21-2 13 2 36 161 12 121-10 28-59 12-33-2-50-3-45 7-28 8-47-5-53 6-27h66l12 58 2 55 2 78 13 49-3 48 3 50 38-3 12-34v-42l7-56-4-56 14-41 24-8 26 2 2 26-2 32 5 33-1 28-2 31 8 35 4 24 13 16 53 175z"/>
</svg>