<svg version="1.2" xmlns="http://www.w3.org/2000/svg" viewBox="0 0 1500 500" width="1500" height="500">
	<title>BG</title>
	<style>
		.s0 { fill: #80c051 } 
	</style>
	<path id="Shape 1" class="s0" d="m0 260l14 10 10 17 11 4 11-2 8 10 16-5 22 10 17 23c0 0 15.1-2.7 19-4 3.9-1.3 15-7 15-7l27-13 10 12 27 3c3.4 0.5 37-9 37-9l15-31 38 6 12 13 30 2 28-7c4.4-4.2 17-13 17-13l22 7 31 20 24-10 35-9 12 11 46-9 17 23 22 13 19-9 43-14 25-1 9 13 18 1 37-16 16-3 25 21 31-1 30 18 28-9 15-15 32-7h37l12 14 25-8 34 7 23 18 20-1 14-12 18-2 24 5 10 9 43-11 20-7 15 7 16 11 24-1 32-5 25-14 21 10 27-8 8-8 15-5 14 18 16-7 14-13 18-12 25-8 21-12 8-7v239h-1500z"/>
</svg>