<svg version="1.2" xmlns="http://www.w3.org/2000/svg" viewBox="0 0 350 70" width="350" height="70">
	<title>level1-1</title>
	<style>
		.s0 { fill: #020c01 } 
		.s1 { fill: #72c668 } 
	</style>
	<path id="Shape 1" class="s0" d="m7 70v-10l-3-14 2-11 2-18-2-12-6-5h350l-2 9-3 8-8 6 4 5 4 7-2 8 3 8-1 7 2 9v3z"/>
	<path id="Layer 1" class="s1" d="m2 0l8 5 9 3 15 1 18 1 13 4 13-4 14-1 19 6 17-6 18-1 6 3 18-2h11l11 5 18-5h15l19 3 9-4h12l8 3 18-1 14-1c0 0 4.5 1.7 10 3 5.5 1.3 16 0 16 0l15-5 4-7z"/>
</svg>